<svg class="social-icon" xmlns="http://www.w3.org/2000/svg" width="262.2px" height="256px" viewBox="221.8 548 262.2 256">
<title>GitHub icon</title>
<path d="M353,548c-72.5,0-131.2,58.7-131.2,131.2c0,58,37.6,107.1,89.7,124.6c6.6,1.2,8.9-2.9,8.9-6.4c0-3.1-0.1-13.4-0.2-24.4
	c-36.5,7.9-44.2-15.5-44.2-15.5c-5.9-15.2-14.6-19.2-14.6-19.2c-11.9-8.1,0.9-8,0.9-8c13.1,0.9,20.1,13.5,20.1,13.5
	c11.7,20.1,30.8,14.2,38.2,10.9c1.2-8.5,4.6-14.2,8.3-17.5c-29.1-3.3-59.8-14.6-59.8-64.9c0-14.4,5.1-26,13.5-35.3
	c-1.3-3.4-5.8-16.7,1.3-34.8c0,0,11-3.5,36.1,13.4c10.5-3,21.7-4.4,32.8-4.4c11.2,0,22.3,1.5,32.8,4.4c25-17,36.1-13.4,36.1-13.4
	c7.2,18,2.7,31.5,1.3,34.8c8.4,9.2,13.4,20.9,13.4,35.3c0,50.4-30.8,61.5-60,64.8c4.7,4.1,8.9,12.1,8.9,24.3c0,17.5-0.2,31.7-0.2,36
	c0,3.5,2.4,7.6,9,6.4c52.1-17.4,89.6-66.5,89.6-124.6C484.2,606.7,425.5,548,353,548z"/>
</svg>
