<svg class="social-icon" version="1.1" id="Layer_1" xmlns="http://www.w3.org/2000/svg" width="316.8px" height="256px" viewBox="-1152.6 951.4 316.8 256">
<title>Twitter icon</title>
<path d="M-835.9,981.5c-11.5,5.1-24.4,8.3-37.3,10.3c13.5-8.3,23.8-20.5,28.2-35.9c-12.9,7.7-26.2,12.9-41.1,16.1
	c-11.5-12.9-28.8-20.5-47.4-20.5c-35.9,0-64.7,28.8-64.7,64.7c0,5.1,0.6,10.3,2,14.7c-53.8-2.6-101.4-28.2-133.4-68
	c-5.8,9.7-9,20.5-9,32.7c0,22.4,11.5,42.3,28.8,53.8c-10.9-0.6-20.5-3.2-29.5-8.3v0.6c0,31.4,22.4,57.7,52,63.5
	c-5.1,1.2-10.9,2.6-17.3,2.6c-4.5,0-8.3-0.6-12.1-1.2c8.3,25.6,32.1,44.3,60.3,44.9c-22.4,17.3-50,27.6-80.8,27.6
	c-5.1,0-10.3,0-15.4-0.6c28.8,18.6,62.9,28.8,99.4,28.8c119.3,0,184.7-98.8,184.7-184.7c0-2.6,0-5.8,0-8.3
	C-855,1005.9-844.2,994.4-835.9,981.5z"/>
</svg>
