<svg class="social-icon" xmlns="http://www.w3.org/2000/svg" width="256.9px" height="256px" viewBox="-770.6 547 256.9 256">
<title>LinkedIn icon</title>
<path d="M-717,803V634h-52.7V803H-717z M-717,573.8c0-14.8-10.1-26.8-26.8-26.8s-26.8,11.1-26.8,26.8c0,14.8,10.1,26.8,26.8,26.8
	l0,0C-727.1,600.6-717,588.6-717,573.8z M-632,803v-96.1c0-5.5,0-10.1,1.8-13.8c3.7-10.1,13.8-21.3,29.6-21.3
	c20.4,0,34.2,12,34.2,35.1V803h52.7v-98.8c0-52.7-28.6-77.7-65.6-77.7c-30.5,0-44.4,17.6-51.8,28.6V633h-52.7c0.9,16.7,0,170,0,170
	h51.8V803z"/>
</svg>
