<?xml version="1.0" standalone="no"?>
<!DOCTYPE svg PUBLIC "-//W3C//DTD SVG 20010904//EN"
 "http://www.w3.org/TR/2001/REC-SVG-20010904/DTD/svg10.dtd">
<svg version="1.0" xmlns="http://www.w3.org/2000/svg"
 width="700.000000pt" height="700.000000pt" viewBox="0 0 700.000000 700.000000"
 preserveAspectRatio="xMidYMid meet">
<metadata>
Created by potrace 1.11, written by Peter Selinger 2001-2013
</metadata>
<g transform="translate(0.000000,700.000000) scale(0.100000,-0.100000)"
fill="#000000" stroke="none">
<path d="M310 3525 l0 -1165 245 0 245 0 0 445 0 445 219 0 219 0 273 -445
272 -445 275 0 274 0 -18 27 c-87 133 -594 915 -594 918 0 1 26 13 58 26 131
52 250 150 317 259 69 114 97 228 96 394 -1 210 -55 351 -185 482 -67 67 -97
89 -176 127 -52 26 -133 56 -180 69 -83 21 -101 22 -712 25 l-628 4 0 -1166z
m1070 775 c156 -21 230 -63 278 -159 51 -102 52 -254 2 -352 -26 -50 -92 -104
-159 -131 -53 -21 -73 -23 -378 -26 l-323 -3 0 340 0 341 253 0 c138 0 286 -5
327 -10z"/>
<path d="M2510 4685 c0 -4 201 -528 446 -1166 l447 -1159 117 0 c85 0 119 4
123 13 36 88 887 2302 887 2309 0 5 -48 7 -106 6 l-106 -3 -338 -893 c-186
-490 -364 -969 -395 -1062 -31 -94 -60 -170 -64 -170 -3 0 -35 84 -69 188 -34
103 -212 581 -395 1062 l-333 875 -107 3 c-59 1 -107 0 -107 -3z"/>
<path d="M4930 3525 l0 -1165 900 0 900 0 0 195 0 195 -655 0 -655 0 0 295 0
295 495 0 495 0 0 190 0 190 -495 0 -495 0 0 290 0 290 630 0 630 0 0 195 0
195 -875 0 -875 0 0 -1165z"/>
<path d="M320 1810 l0 -130 3205 0 3205 0 0 130 0 130 -3205 0 -3205 0 0 -130z"/>
</g>
</svg>
